<svg viewBox="0 0 100 100" fill="none" xmlns="http://www.w3.org/2000/svg">
  <circle cx="50" cy="50" r="42" stroke="#06162D" stroke-width="3" stroke-dasharray="4 2" opacity="0.4" />
  <path d="M50 8 A42 42 0 0 1 50 92 A42 42 0 0 1 50 8" stroke="#06162D" stroke-width="2" opacity="0.3" />
  <path d="M50 8 A25 42 0 0 1 50 92 A25 42 0 0 1 50 8" stroke="#06162D" stroke-width="2" opacity="0.3" />
  <path d="M8 50 C 8 30, 92 30, 92 50 C 92 70, 8 70, 8 50 Z" stroke="#06162D" stroke-width="2" opacity="0.3" />
  <path d="M18 30 C 18 20, 82 20, 82 30" stroke="#06162D" stroke-width="1.5" opacity="0.2" />
  <path d="M18 70 C 18 80, 82 80, 82 70" stroke="#06162D" stroke-width="1.5" opacity="0.2" />
  <path d="M16 66 C 10 40, 40 12, 72 16 C 88 18, 92 30, 86 44" stroke="#C89235" stroke-width="3.5" stroke-linecap="round" />
  <path d="M50 20 L53.5 45 L50 49 L46.5 45 Z" fill="#C89235" />
  <path d="M50 80 L53.5 55 L50 51 L46.5 55 Z" fill="#C89235" />
  <path d="M80 50 L55 53.5 L51 50 L55 46.5 Z" fill="#C89235" />
  <path d="M20 50 L45 53.5 L49 50 L45 46.5 Z" fill="#C89235" />
  <path d="M50 50 L58 42 M50 50 L58 58 M50 50 L42 42 M50 50 L42 58" stroke="#C89235" stroke-width="2" />
  <circle cx="50" cy="50" r="3" fill="#06162D" />
</svg>
